# xmcd
#
# Track frame offsets:
#	151
#	13786
#	27561
#	38188
#	54890
#	66717
#	86419
#	97499
#	113075
#	130308
#
# Disc length: 1902 seconds
#
# Revision: 1
# Processed by: cddbd v1.5.2PL0 Copyright (c) Steve Scherf et al.
# Submitted via: audiograbber 1.83.01
#
DISCID=8d076c0a
DTITLE=Robert Bo McGuire - The Promise Robert Bo McGuire
DYEAR=1900
DGENRE=
TTITLE0=Nashville Tennessee
TTITLE1=Want Someone
TTITLE2=She Left And She´s Right
TTITLE3=The Promise
TTITLE4=Cold As The Stone In The Ring On Your Finger
TTITLE5=Forbidden Fruit
TTITLE6=More Haggard Than Merle
TTITLE7=Hard To Be Lonely
TTITLE8=Even The Jukebox Cried
TTITLE9=Jesus Is My Everything
EXTD=
EXTT0=
EXTT1=
EXTT2=
EXTT3=
EXTT4=
EXTT5=
EXTT6=
EXTT7=
EXTT8=
EXTT9=
PLAYORDER=
